<svg width="17" height="17" viewBox="0 0 17 17" fill="none" xmlns="http://www.w3.org/2000/svg">
<rect width="17" height="17" fill="#1E1E1E"/>
<g id="&#208;&#147;&#208;&#187;&#208;&#176;&#208;&#178;&#208;&#189;&#208;&#176;&#209;&#143; &#209;&#129;&#209;&#130;&#209;&#128;&#208;&#176;&#208;&#189;&#208;&#184;&#209;&#134;&#208;&#176;" clip-path="url(#clip0_0_1)">
<rect width="1440" height="4210" transform="translate(-1140 -138)" fill="white"/>
<g id="&#208;&#165;&#208;&#181;&#208;&#180;&#208;&#181;&#209;&#128; (&#208;&#189;&#208;&#181;&#208;&#176;&#208;&#178;&#209;&#130;&#208;&#190;&#209;&#128;&#208;&#184;&#208;&#183;&#208;&#184;&#209;&#128;&#208;&#190;&#208;&#178;&#208;&#176;&#208;&#189;&#208;&#189;&#209;&#139;&#208;&#185; &#208;&#191;&#208;&#190;&#208;&#187;&#209;&#140;&#208;&#183;&#208;&#190;&#208;&#178;&#208;&#176;&#209;&#130;&#208;&#181;&#208;&#187;&#209;&#140;)">
<rect width="1440" height="216" transform="translate(-1140 -138)" fill="white"/>
<g id="&#208;&#159;&#208;&#190;&#208;&#184;&#209;&#129;&#208;&#186;">
<g id="Frame 32">
<g id="vuesax/outline/search-normal">
<g id="vuesax/outline/search-normal_2">
<g id="search-normal">
<path id="Vector" d="M8.16634 15.0002C4.39967 15.0002 1.33301 11.9335 1.33301 8.16683C1.33301 4.40016 4.39967 1.3335 8.16634 1.3335C11.933 1.3335 14.9997 4.40016 14.9997 8.16683C14.9997 11.9335 11.933 15.0002 8.16634 15.0002ZM8.16634 2.3335C4.94634 2.3335 2.33301 4.9535 2.33301 8.16683C2.33301 11.3802 4.94634 14.0002 8.16634 14.0002C11.3863 14.0002 13.9997 11.3802 13.9997 8.16683C13.9997 4.9535 11.3863 2.3335 8.16634 2.3335Z" fill="#202B21"/>
<path id="Vector_2" d="M15.1666 15.6666C15.04 15.6666 14.9133 15.62 14.8133 15.52L13.48 14.1866C13.2866 13.9933 13.2866 13.6733 13.48 13.48C13.6733 13.2866 13.9933 13.2866 14.1866 13.48L15.52 14.8133C15.7133 15.0066 15.7133 15.3266 15.52 15.52C15.42 15.62 15.2933 15.6666 15.1666 15.6666Z" fill="#202B21"/>
</g>
</g>
</g>
<rect x="-14" y="-11.5" width="213" height="40" rx="20" stroke="#202B21"/>
</g>
</g>
</g>
</g>
<defs>
<clipPath id="clip0_0_1">
<rect width="1440" height="4210" fill="white" transform="translate(-1140 -138)"/>
</clipPath>
</defs>
</svg>
